<?xml version="1.0" encoding="UTF-8"?>
<svg id="Layer_1" xmlns="http://www.w3.org/2000/svg" version="1.1" viewBox="0 0 300 300">
  <!-- Generator: Adobe Illustrator 30.0.0, SVG Export Plug-In . SVG Version: 2.1.1 Build 123)  -->
  <defs>
    <style>
      .st0 {
        fill: #646464;
      }
    </style>
  </defs>
  <path class="st0" d="M170.2,16.6c4.8,7.7,5.4,18.7,9.5,26.8,8.6,2.5,16.7,6.3,24.7,10.2,6.6-2.8,13.1-6.8,19.6-10.1,1.6-.8,4.3-2.5,6-2.1,10,7.8,20.2,16.9,27.3,27.5.6.9,1.4.6.9,2.7-4,7.9-8.2,15.8-12.1,23.7,4.4,7.9,7.8,16.2,10.2,24.8,8,4.3,18.6,5.6,26.7,9.3,1.8,13.1,2.4,27.6,0,40.7-.3,1.4-3.4,1.6-4.5,2-7.4,2.8-15.8,4.4-22.4,7.9-1.9,8.7-6.4,16.6-10.1,24.7,3.7,5.8,6.7,13.3,10,19.2.7,1.4,2.5,4.7,2.2,6.1-8.3,10.3-17.9,23.1-29.8,28.4-6.9-2.7-14.5-7.7-21.3-10.7-1.1-1-3.1-2-4-.7-5,2.1-10.6,5.4-15.9,7.3s-6.9,1.5-7.6,2.3c-2.9,7.1-5.7,20-8.9,26.7-13.7,1.5-28.4,2.7-41.6-.5-12.2-34.6.6-20.1-31.9-35.7-3.1-3-20.5,11.4-27,11.5-10.3-7.5-19.4-16.5-26.9-26.9-1-1.3-1.9-.9-1.3-3.5,3.9-6.7,7.4-14.4,11-21.5,2.7-2.3-1.8-7-2.5-9.9-2.9-4.4-4.9-13.2-6.9-17.3-7.9-1.8-15.2-5.5-23-7.3-4.6-1.5-3.1-1.2-3.7-5.3-1.9-12.7-1.7-25,.5-37.5,8.6-3.2,18-5.5,26.5-9.1,2-7.6,6.3-17.4,9.9-24.6-2-4.6-4.2-9-6.5-13.4-1.5-3.8-5.9-8.3-5.4-12.2,8-10.6,18.1-21.8,29.3-28.5,35.7,17.4,16.5,12.5,49.4,1.7,0,0,8.4-25.9,8.4-25.9,13.8-2.7,27.1-2.1,41.1-.6ZM166.7,93.7c-68.5-19.3-105.8,77.6-42.1,109,76.3,33.4,120.3-82.7,42.1-109Z"/>
</svg>
