<?xml version="1.0" encoding="UTF-8"?>
<svg id="Layer_1" xmlns="http://www.w3.org/2000/svg" version="1.1" viewBox="0 0 162.8 34.6">
  <!-- Generator: Adobe Illustrator 30.2.1, SVG Export Plug-In . SVG Version: 2.1.1 Build 1)  -->
  <defs>
    <style>
      .st0 {
        fill: #010101;
      }

      .st1 {
        letter-spacing: 0em;
      }

      .st1, .st2, .st3, .st4, .st5 {
        isolation: isolate;
      }

      .st1, .st2, .st4 {
        font-family: HankenGrotesk-Medium, 'Hanken Grotesk';
        font-size: 17.2px;
        font-weight: 500;
      }

      .st1, .st2, .st4, .st5 {
        fill: #231f20;
      }

      .st2 {
        letter-spacing: 0em;
      }

      .st5 {
        font-family: HankenGrotesk-Bold, 'Hanken Grotesk';
        font-size: 24.3px;
        font-weight: 700;
        letter-spacing: 0em;
      }

      .st6 {
        fill: #fff;
        stroke: #231f20;
        stroke-miterlimit: 10;
        stroke-width: .3px;
      }
    </style>
  </defs>
  <circle class="st0" cx="12.9" cy="17.2" r="13.2"/>
  <path class="st6" d="M6,9.9v3.9h6.3c-1.9,2.1-3.9,6-4.9,13.3,0,0,3.4-7.1,8.7-9.8v6.8h3.9v-14.3H5.9h0Z"/>
  <g class="st3">
    <text class="st4" transform="translate(30.4 23.8)"><tspan x="0" y="0">P</tspan></text>
    <text class="st2" transform="translate(39.9 23.8)"><tspan x="0" y="0">R</tspan></text>
    <text class="st4" transform="translate(50 23.8)"><tspan x="0" y="0">OJ</tspan></text>
    <text class="st4" transform="translate(72.4 23.8)"><tspan x="0" y="0">E</tspan></text>
    <text class="st4" transform="translate(82.3 23.8)"><tspan x="0" y="0">C</tspan></text>
    <text class="st4" transform="translate(94.3 23.8)"><tspan x="0" y="0">T</tspan></text>
    <text class="st5" transform="translate(104.4 25.9)"><tspan x="0" y="0">4</tspan></text>
    <text class="st1" transform="translate(119.9 23.8)"><tspan x="0" y="0">C</tspan></text>
    <text class="st4" transform="translate(131.9 23.8)"><tspan x="0" y="0">A</tspan></text>
    <text class="st4" transform="translate(143 23.8)"><tspan x="0" y="0">S</tspan></text>
    <text class="st4" transform="translate(152.7 23.8)"><tspan x="0" y="0">T</tspan></text>
  </g>
</svg>